<?xml version="1.0" encoding="utf-8"?>
<!-- Generator: Adobe Illustrator 26.4.1, SVG Export Plug-In . SVG Version: 6.00 Build 0)  -->
<svg version="1.1" id="Layer_1" xmlns="http://www.w3.org/2000/svg" xmlns:xlink="http://www.w3.org/1999/xlink" x="0px" y="0px"
	 viewBox="0 0 424.8 341" style="enable-background:new 0 0 424.8 341;" xml:space="preserve">
<style type="text/css">
	.st0{fill:#F2EBE6;}
	.st1{fill:#D5C0B1;}
	.st2{fill:none;stroke:#513B2B;stroke-miterlimit:10;}
	.st3{fill:#513B2B;}
</style>
<rect x="-8" y="-0.7" class="st0" width="436.4" height="353.5"/>
<g>
	<path class="st1" d="M97.2,233v-1.9l6.3-1.9c2.3-0.6,3.9-1.9,4.9-3.7c1-1.8,1.5-4,1.5-6.6v-91.5c-1.4-3-2.5-5.3-3.3-6.9
		c-0.8-1.5-1.7-2.8-2.8-3.9c-1-1.1-2.4-2.4-4.2-4.1l-3.2-3.2v-1.9h33.7l63.2,86.2v-71.7c0-2.5-0.4-4.8-1.2-6.9c-0.8-2-2.5-3.4-5-4
		l-6.3-1.7v-1.9h27.2v1.9l-5.1,1.7c-2.3,0.8-3.7,2.1-4.2,4c-0.5,1.9-0.8,4.1-0.8,6.7v111.9h-10.7l-72.7-99.9v85.2
		c0,2.5,0.4,4.7,1.1,6.5c0.8,1.8,2.3,3,4.8,3.8l5.7,1.9v1.9H97.2z"/>
	<path class="st1" d="M223,233v-1.9l3.4-1.3c2.5-1,4.3-2.3,5.2-3.8s1.4-3.5,1.4-6.1v-99.3c0-2.7-0.5-4.8-1.4-6.3
		c-1-1.5-2.7-2.7-5.2-3.6l-3.4-1.3v-1.9h54.6c15.5,0,26.6,2.8,33.5,8.5c6.8,5.6,10.3,12.8,10.3,21.4c0,6.5-2.5,12.3-7.5,17.6
		c-5,5.3-13.6,9-25.8,11.1c14,1.5,24.2,5.2,30.6,10.9c6.5,5.8,9.7,12.8,9.7,21c0,4.1-0.9,8.2-2.7,12.3c-1.8,4.1-4.8,7.9-9,11.3
		c-4.3,3.4-10.1,6.2-17.4,8.3c-7.4,2.1-16.7,3.1-28,3.1H223z M261.2,165.8h8.2c8.5,0,14.6-2,18.4-5.9c3.7-3.9,5.6-10.8,5.6-20.5
		c0-10.1-1.7-17.4-5.1-21.7c-3.4-4.3-9-6.5-16.7-6.5h-10.3V165.8z M261.2,229.2h9.5c9.5,0,16.6-2.5,21.2-7.6
		c4.6-5.1,6.9-13,6.9-23.8c0-10.1-2.2-17.4-6.7-21.7c-4.4-4.3-11.7-6.5-21.9-6.5h-9.1V229.2z"/>
</g>
<rect x="34.4" y="32.3" class="st2" width="355.9" height="276.4"/>
<g>
	<path class="st3" d="M183.3,152.7c-0.4,0.1-0.7,0.1-1,0c-0.3-0.1-0.5-0.2-0.8-0.4c-0.1-0.1-0.2-0.1-0.3-0.2
		c-3.4-1.9-7.1-3.3-10.9-4.2c-10-2.4-20.2-1.4-30.6,3c-3.8,1.6-7.4,3.5-10.9,5.8c-3.5,2.2-6.9,4.7-10.2,7.4
		c-5.3,4.3-10.2,9-14.7,14.2c-4.5,5.1-8.6,10.6-12.4,16.4c-1.4,2.1-2.7,4.2-3.9,6.3c0,0.1-0.1,0.1-0.1,0.2c-1,1.5-1.8,3.1-2.4,4.8
		c-0.3,0.8-0.7,1.6-1.1,2.3c-0.5,0.9-1.3,1.3-2.2,1.1c-0.5-0.1-0.8-0.5-0.7-1c0.1-0.4,0.2-0.8,0.4-1.2c1-2,1.9-4,2.7-6
		c0.8-2,1.5-4.1,2.2-6.2c0.2-0.5,0.4-1,0.5-1.6c4.1-11.9,7.8-23.8,11.3-35.8c0.1-0.3,0.1-0.5,0.1-0.8c0-0.1,0-0.3,0-0.4
		c-0.3,0-0.6,0.1-0.8,0.3c-0.2,0.2-0.3,0.4-0.4,0.6c0,0.1-0.1,0.2-0.1,0.3c-0.2,0.3-0.4,0.6-0.6,0.9c-2,3.1-3.9,6.2-5.9,9.3
		c-3,5-6.1,9.9-9.1,14.9c-4.4,7.2-8.8,14.4-13.3,21.6c-1,1.6-2,3.1-3.1,4.7c-0.3,0.4-0.5,0.8-0.8,1.1c-0.4,0.7-1,1.1-1.7,1.2
		c-0.2,0-0.4,0-0.6,0c-0.2,0-0.3-0.2-0.4-0.3c-0.1-0.1-0.1-0.3,0-0.4c0.1-0.2,0.1-0.3,0.2-0.4c10.6-17.4,21.3-34.8,32-52.2
		c1-1.5,2-3,3.1-4.5c0.2-0.3,0.5-0.6,0.7-1c0.6-0.9,1.4-1.5,2.4-1.8c0.6-0.1,1.1,0,1.5,0.3c0.4,0.3,0.5,0.8,0.5,1.4
		c-0.2,1.9-0.6,3.8-1.2,5.7c-2.9,10.1-6.1,20.2-9.4,30.2c0,0.1-0.1,0.2-0.1,0.3c-0.1,0.3-0.2,0.6-0.2,0.9c0,0.3,0,0.6,0.2,1
		c0.2-0.3,0.5-0.6,0.7-0.9c0.5-0.6,1-1.2,1.4-1.9c5.3-7.5,11.3-14.2,18-20.3c3.9-3.5,7.9-6.7,12-9.6c4.2-2.9,8.5-5.5,13.1-7.6
		c9.5-4.2,19-5.8,28.5-4.7c6,0.7,11.7,2.5,16.9,5.2c0.1,0.1,0.3,0.1,0.4,0.2c0.3,0.1,0.5,0.3,0.8,0.4c0.2,0.1,0.4,0.4,0.6,0.7
		c0,0.1,0,0.1,0,0.2c0,0.1,0,0.2,0,0.3c-0.1,0.1-0.1,0.2-0.2,0.2C183.4,152.6,183.3,152.7,183.3,152.7z"/>
	<path class="st3" d="M117.4,195.2c0.3,0.2,0.3,0.6,0.1,1.3c-0.4,0.5-0.8,1-1.2,1.4c-0.4,0.4-0.9,0.8-1.5,1.2c0,0,0,0,0,0
		c-0.4,0.2-0.7,0.4-1.1,0.6c-3.2,1.2-4.9,0.5-4.9-2c-1.3,1.1-2.2,1.8-2.6,2.1c-1.1,0.6-2.2,0.9-3.5,0.8c-0.9-0.1-1.5-0.3-1.9-0.8
		c-0.3-0.5-0.3-1.2,0.1-2c0.6-1.4,1.4-2.6,2.5-3.6c1.3-1.2,2.7-2.1,4.3-2.8c0.8-0.4,1.7-0.6,2.6-0.5c0.9,0.1,1.5,0.6,1.6,1.6
		c0.1,0.3,0,0.6-0.2,0.8c-0.3,0.3-0.6,0.3-1,0.2c0,0-0.1,0-0.1,0c0,0-0.1,0-0.1-0.1c-0.4-0.5-0.8-0.8-1.2-0.7
		c-0.4,0.1-0.8,0.3-1.3,0.5c-2.1,1.2-3.6,2.9-4.6,5.1c-0.1,0.1-0.1,0.2-0.1,0.3c0,0.1,0,0.2,0.1,0.3c0.2,0.1,0.5,0.1,0.8,0
		c0.3-0.1,0.6-0.3,0.9-0.5c0.3-0.2,0.5-0.4,0.8-0.6l0,0c1-0.8,1.9-1.7,2.9-2.5c0.4-0.4,0.9-0.7,1.6-0.8c0.9,0,1.3,0.4,1.1,1.2
		c-0.1,0.3-0.2,0.6-0.3,0.9c-0.4,1.3-0.4,2,0,2.2c0.3,0.2,0.8,0.2,1.5,0c0.7-0.2,1.3-0.6,2-1.3c0.7-0.6,1.2-1.2,1.7-1.7
		C116.7,195.2,117.1,195,117.4,195.2z"/>
	<path class="st3" d="M119.4,201.9c-1.3,0-1.9-0.7-1.9-2c0-1.6,1-4.5,3.1-8.6c0.1-0.2,0.2-0.3,0.4-0.3c0.9,0,1.3,0.3,1.3,1
		c0,0.2-0.1,0.5-0.2,0.9c-0.1,0.1-0.8,1.9-2.1,5.3c-0.2,0.6-0.3,1-0.3,1.2c0,0.3,0.1,0.4,0.4,0.4c1,0,3.5-2.4,7.7-7.3
		c0.5-0.6,1.1-1,1.6-1c0.8,0,1.2,0.3,1.2,0.8c0,0.2-0.2,1-0.7,2.4c-0.7,1.9-1,3-1,3.3c0,0.4,0.1,0.7,0.4,0.7c0.7,0,2.9-1.3,6.5-3.9
		c0.2-0.2,0.4-0.3,0.5-0.3c0.3,0,0.5,0.3,0.5,0.8c0,0.1,0,0.3-0.1,0.4c-1.9,1.6-3.5,2.9-4.8,3.7c-1.2,0.8-2.3,1.2-3.2,1.2h-0.3
		c-1.4-0.3-2.1-1.4-2.1-3.2c-1.5,1.3-2.7,2.4-3.7,3.1C121.6,201.5,120.6,201.9,119.4,201.9z"/>
	<path class="st3" d="M148.1,195.2c-2.1,0.8-3.7,1.4-4.6,2c-0.7,0.3-1.1,0.6-1.2,0.8c-0.1,0.2,0,0.6,0.2,1.2c0,0,0,0.1,0,0.1
		c0.3,0.7,0.5,1.4,0.5,2.2c0.1,1.5-1.2,2.6-3.9,3.2c-2.7,0.6-4.5,0.6-5.5,0.1c-0.9-0.6-1.2-1.3-0.8-2.2c0.4-0.9,1.3-1.8,2.8-2.7
		c1.5-0.9,2.5-1.6,3-2c0.5-0.4,0.6-0.8,0.4-1.4c-0.1-0.2-0.1-0.4-0.2-0.5c-0.2-0.4-0.4-0.8-0.5-1.3c-0.4-0.8-0.5-1.6-0.5-2.4
		c0-0.8,0.3-1.4,0.9-2c0.5-0.5,1.4-0.8,2.5-0.8c0.6,0,1.2,0.1,1.7,0.2c0.5,0.2,0.9,0.6,1.2,1.1c0.2,0.4,0.2,0.7-0.2,1
		c-0.3,0.2-0.5,0.2-0.8,0.1c-0.2-0.1-0.4-0.2-0.5-0.4v0c-0.1-0.1-0.2-0.1-0.2-0.2c-0.1-0.1-0.2-0.2-0.3-0.3
		c-0.4-0.3-0.7-0.3-1.1-0.2c-0.4,0.1-0.6,0.4-0.8,0.8c-0.1,0.4-0.2,0.7-0.2,1.1c0,0.4,0.1,0.9,0.3,1.3c0.1,0.3,0.2,0.5,0.3,0.7
		c0.2,0.6,0.4,1,0.6,1.2c0.1,0.2,0.3,0.3,0.5,0.3c0.2,0,2.1-0.7,5.7-2C148.2,194,148.4,194.3,148.1,195.2z M139.3,202.9
		c0.9-0.3,1.3-1,1.2-1.9c0-0.1,0-0.1,0-0.2c-0.1-0.5-0.2-0.9-0.3-1.2c-0.2-0.3-0.5-0.3-1.1,0c-1.4,0.8-2.7,1.7-3.9,2.8
		c-0.1,0.1-0.2,0.2-0.2,0.3l0,0c-0.1,0.1-0.1,0.2,0,0.4c0.1,0.1,0.2,0.2,0.4,0.2C136.6,203.5,138,203.4,139.3,202.9z"/>
	<path class="st3" d="M158,197c-0.7,0.9-1.6,1.6-2.6,2.4c-1,0.7-2.1,1.2-3.3,1.4c-1.2,0.3-2.2,0.2-2.9-0.3c-0.7-0.4-0.8-1.4-0.4-2.9
		c0.5-1.5,1.3-3,2.2-4.4c0.2-0.3,0.5-0.5,0.9-0.6c0.3-0.1,0.6,0,0.8,0.2c0.2,0.2,0.3,0.4,0.2,0.6c-0.2,0.5-0.4,1-0.7,1.4
		c-0.2,0.5-0.4,0.8-0.5,1c-0.5,0.9-0.8,1.8-1,2.7c0,0.5,0.7,0.6,2.2,0.1c1.4-0.5,2.8-1.3,4.2-2.6c1.4-1.3,2-1.6,2-1.1
		C159.2,195.4,158.8,196.1,158,197z M154.5,190.2c-0.1,0.1-0.2,0.1-0.4,0.2c-0.2,0.1-0.4,0.1-0.7,0.2c-0.2,0-0.4,0-0.6-0.1
		c-0.1-0.1-0.1-0.3,0-0.6c0.2-0.6,0.4-1.1,0.7-1.5c0.2-0.4,0.5-0.9,0.9-1.4c0.2-0.2,0.5-0.4,0.8-0.4c0.3,0,0.5,0.1,0.7,0.2
		c0.2,0.2,0.2,0.4,0.2,0.7C155.8,188.5,155.3,189.4,154.5,190.2z"/>
	<path class="st3" d="M175.3,195c0.1,0,0.1,0,0.2,0c0.1,0,0.2,0.1,0.2,0.1c0.2,0.2,0.2,0.4,0,0.6c-0.2,0.2-0.4,0.4-0.5,0.5
		c-1,0.9-2.2,1.7-3.5,2.4c-2,1-4.2,1.5-6.6,1.6c-0.9,0-1.8-0.1-2.8-0.4c-1.7-0.7-2.4-1.9-2.1-3.7c0.4-1.7,1.3-3.1,2.8-4.2
		c1.5-1.1,3.1-1.6,4.8-1.4c0.3,0.1,0.6,0.1,1,0.2c0.3,0.1,0.5,0.3,0.7,0.5c0.1,0.2,0.2,0.4,0,0.6c-0.3,0.4-0.7,0.4-1.1,0.3
		c-0.6-0.3-1.2-0.3-1.7-0.2c-0.5,0.1-1,0.4-1.6,0.8c-0.5,0.4-1.1,0.9-1.6,1.7c-0.6,0.7-1,1.5-1.1,2.2c-0.2,0.8,0.2,1.4,1,1.8
		c0.9,0.4,1.9,0.5,2.9,0.3c2.5-0.5,4.7-1.4,6.8-2.8c0.2-0.1,0.3-0.2,0.5-0.3c0.2-0.2,0.5-0.3,0.7-0.4C174.7,195.1,175,195,175.3,195
		z"/>
	<path class="st3" d="M191.6,195.2c0.3,0.2,0.3,0.6,0.1,1.3c-0.4,0.5-0.8,1-1.2,1.4c-0.4,0.4-0.9,0.8-1.5,1.2c0,0,0,0,0,0
		c-0.4,0.2-0.7,0.4-1.1,0.6c-3.2,1.2-4.9,0.5-4.9-2c-1.3,1.1-2.2,1.8-2.6,2.1c-1.1,0.6-2.2,0.9-3.5,0.8c-0.9-0.1-1.5-0.3-1.9-0.8
		c-0.3-0.5-0.3-1.2,0.1-2c0.6-1.4,1.4-2.6,2.5-3.6c1.3-1.2,2.7-2.1,4.3-2.8c0.8-0.4,1.7-0.6,2.6-0.5c0.9,0.1,1.5,0.6,1.6,1.6
		c0.1,0.3,0,0.6-0.2,0.8c-0.3,0.3-0.6,0.3-1,0.2c0,0-0.1,0-0.1,0c0,0-0.1,0-0.1-0.1c-0.4-0.5-0.8-0.8-1.2-0.7
		c-0.4,0.1-0.8,0.3-1.3,0.5c-2.1,1.2-3.6,2.9-4.6,5.1c-0.1,0.1-0.1,0.2-0.1,0.3c0,0.1,0,0.2,0.1,0.3c0.2,0.1,0.5,0.1,0.8,0
		c0.3-0.1,0.6-0.3,0.9-0.5c0.3-0.2,0.5-0.4,0.8-0.6l0,0c1-0.8,1.9-1.7,2.9-2.5c0.4-0.4,0.9-0.7,1.6-0.8c0.9,0,1.3,0.4,1.1,1.2
		c-0.1,0.3-0.2,0.6-0.3,0.9c-0.4,1.3-0.4,2,0,2.2c0.3,0.2,0.8,0.2,1.5,0c0.7-0.2,1.3-0.6,2-1.3c0.7-0.6,1.2-1.2,1.7-1.7
		C190.9,195.2,191.3,195,191.6,195.2z"/>
	<path class="st3" d="M356,218.9c0.1,0,0.1,0.1,0.1,0.2c0,0.1,0,0.2,0,0.2c0,0.1-0.1,0.2-0.1,0.2c-0.1,0.1-0.1,0.1-0.2,0.1
		c-0.3,0.1-0.5,0.2-0.8,0.1c-0.3,0-0.5,0-0.8,0c-0.1,0-0.2,0-0.3,0c-1.2-0.1-2.5-0.3-3.7-0.4c-2.9-0.3-5.8-0.6-8.6-0.8
		c-5.6-0.5-11.1-1-16.7-1.4c-7.8-0.5-15.6-0.9-23.5-1.2c-5.6-0.2-11.2-0.4-16.9-0.4c-0.6,0-1.2,0-1.9,0c-0.7,0-1.3,0-1.9,0
		c-3.8-0.1-7.6-0.1-11.4-0.1h-0.1c-2.2,0-4.5,0-6.7,0.1c-0.8,0-1.6,0-2.4,0c-1,0-2,0.2-3.1,0.6c-7.7,2.7-15.6,4.7-23.5,6
		c-2.3,0.4-4.6,0.7-6.8,1c-2.3,0.3-4.6,0.4-6.8,0.4c-0.7,0-1.5,0-2.2,0c-1.1,0-2.2-0.1-3.2-0.4c-0.4-0.1-0.8-0.2-1.2-0.4
		c-0.3-0.1-0.6-0.3-0.8-0.5c-0.2-0.2-0.3-0.5-0.3-0.9c0.1-0.4,0.2-0.7,0.5-1s0.6-0.5,0.9-0.7c1-0.6,2.1-1,3.3-1.2
		c0.6-0.1,1.1-0.3,1.7-0.4c1.9-0.4,3.9-0.8,5.8-1.1c7.8-1.2,15.6-1.9,23.3-2.3c0.5,0,0.9-0.1,1.4-0.1c2.4-0.1,4.8-0.2,7.2-0.3
		c0.9,0,1.7-0.2,2.6-0.5c3-1.1,5.9-2.3,8.7-3.7c2.9-1.4,5.7-2.9,8.4-4.6c2.3-1.4,4.4-3,6.3-4.9c1.1-1,2-2.2,2.7-3.5
		c0.9-1.9,0.8-3.5-0.5-4.9c-0.9-0.9-1.9-1.6-3.1-2.1c-1.6-0.7-3.3-1.3-5-1.8c-1.7-0.4-3.5-0.8-5.3-1.2c-5-0.8-10.2-1.3-15.4-1.5
		c-0.2,0-0.4,0-0.5,0c-0.2,0-0.4,0-0.6,0c-0.4,0.1-0.8,0.3-1,0.8c-0.1,0.2-0.2,0.4-0.3,0.6c-0.2,0.4-0.5,0.9-0.7,1.3
		c-1.9,3.8-3.7,7.5-5.5,11.2c-1.5,3.2-3.1,6.3-4.7,9.4c0,0.1-0.1,0.2-0.1,0.3c-0.2,0.4-0.4,0.8-0.6,1.1c-0.3,0.3-0.6,0.4-0.9,0.4
		c-0.2,0-0.4,0-0.6,0c-0.4-0.2-0.5-0.5-0.4-0.8c0.3-0.8,0.7-1.6,1.1-2.4c2.3-5,4.7-9.9,7-14.9c0.8-1.6,1.5-3.1,2.3-4.7
		c0.1-0.1,0.1-0.3,0.2-0.4c0.2-0.4,0.3-0.7,0.5-1.1c0.2-0.5,0-0.8-0.5-0.8c-0.3,0-0.5,0-0.8,0c-0.4,0-0.7-0.1-1-0.1
		c-0.1,0-0.1,0-0.2,0c-0.4,0-0.8-0.1-1.2-0.2c-0.4-0.1-0.6-0.4-0.6-0.8c0-0.5,0.2-0.9,0.5-1.1c0.3-0.2,0.7-0.4,1.1-0.6
		c0.1-0.1,0.3-0.1,0.4-0.1c1.1-0.5,2.3-0.9,3.4-1.2c0.1-0.1,0.3-0.1,0.4-0.1c0.9-0.3,1.6-0.8,2-1.7c2-3.8,4-7.5,5.9-11.2
		c0.7-1.3,1.4-2.6,2.1-3.9c0.1-0.2,0.2-0.4,0.3-0.5c0.2-0.4,0.4-0.8,0.6-1.1c0.3-0.4,0.7-0.6,1.2-0.5c0.2,0,0.4,0,0.6,0
		c0.4,0.2,0.6,0.5,0.4,1c0,0,0,0,0,0c-0.3,1-0.7,2-1.2,2.9c-1.2,2.3-2.3,4.6-3.5,6.8c-0.4,0.8-0.8,1.5-1.2,2.3
		c-0.2,0.4-0.4,0.8-0.6,1.2c-0.4,0.7-0.7,1.3-1,2l0,0c-0.1,0.1-0.1,0.2-0.1,0.4c0,0.1,0,0.2,0.2,0.3c0.1,0,0.2,0.1,0.3,0.1l0.1,0
		c0.2,0,0.4-0.1,0.6-0.1c0.1,0,0.1-0.1,0.2-0.1c6.5-2,12.9-4.2,19.4-6.3c6.5-2.2,12.9-4.5,19.3-7.1c0.1-0.1,0.3-0.1,0.4-0.1
		c2-0.8,3.9-1.6,5.8-2.4c1.9-0.8,3.9-1.7,5.7-2.6c1.4-0.7,2.8-1.5,4-2.4c2.7-2.2,2.8-4.1,0.4-5.8c-1.2-0.8-2.4-1.4-3.7-1.8
		c-1.3-0.4-2.7-0.7-4.1-0.9c-3.4-0.5-6.8-0.8-10.2-0.8h0c-3.3,0-6.7,0.2-10.1,0.5c-7.5,0.7-15.1,1.9-22.6,3.8
		c-6.9,1.7-13.7,4.1-20.4,7c-1.7,0.8-3.4,1.6-5.1,2.6c-0.5,0.3-0.9,0.6-1.4,0.8c-0.3,0.1-0.5,0.1-0.8,0.1c-0.3,0.1-0.6,0-0.8-0.3
		c-0.1-0.2-0.2-0.4,0-0.6c0.1-0.2,0.3-0.3,0.5-0.4c1.4-1,2.9-1.8,4.4-2.5c0,0,0.1,0,0.1,0c6.3-3,12.7-5.3,19.3-7.1
		c9.5-2.6,19-4.2,28.5-4.9c3-0.2,5.9-0.3,8.8-0.3c3.2,0,6.4,0.1,9.5,0.5c3,0.3,5.8,1,8.4,2c1.2,0.5,2.3,1.2,3.2,2.1
		c0.8,0.8,1.1,1.7,1,2.8c-0.1,1-0.6,2-1.5,3c-1.1,1.1-2.4,2.1-3.8,2.8c-1.7,0.9-3.4,1.8-5.1,2.6c-1.7,0.8-3.5,1.5-5.3,2.2
		c-0.1,0-0.1,0.1-0.2,0.1c-6.2,2.5-12.4,4.9-18.7,7.1c-6.3,2.2-12.6,4.3-18.9,6.3c-1.1,0.4-2.1,0.7-3.2,1.1c-1.5,0.5-3,1-4.4,1.5
		c-0.7,0.1-1.2,0.5-1.6,1.1c-0.3,0.5-0.5,0.9-0.4,1.2c0,0.3,0.4,0.5,1,0.5c1.7,0.1,3.4,0.1,5.1,0.3c0.1,0,0.2,0,0.3,0
		c3.2,0.2,6.3,0.5,9.4,1c3.1,0.5,6.1,1.2,9.1,2.1c1.3,0.4,2.5,0.9,3.7,1.4c0.8,0.4,1.6,0.8,2.3,1.3c3,2.4,3.3,5.3,0.7,8.9
		c-0.9,1.2-1.8,2.3-3,3.2c-2.8,2.4-5.7,4.4-8.9,6.1c-2.7,1.5-5.5,2.9-8.3,4.2c-0.3,0.1-0.7,0.3-1,0.4c-0.2,0.1-0.4,0.2-0.6,0.3
		c0.2,0.3,0.3,0.4,0.5,0.5c0.1,0.1,0.3,0.1,0.5,0h0c0.5,0,1,0,1.5,0h0c0.3,0,0.7,0,1,0c1.5,0,3,0,4.4,0c8.8,0,17.5,0.2,26.2,0.6
		c9.5,0.3,18.9,0.9,28.3,1.7c3,0.3,6,0.5,9,0.8c3.6,0.3,7.2,0.6,10.8,0.9c2.1,0.2,4.2,0.5,6.3,0.8c0.5,0.1,1,0.1,1.6,0.2
		C355.3,218.6,355.6,218.7,356,218.9z M249.5,216.5c0.1,0,0.1,0,0.2,0c0.1,0,0.2-0.1,0.4-0.2c0.1-0.1,0.2-0.2,0.3-0.3
		c-0.1-0.1-0.1-0.2-0.2-0.2c0,0-0.1,0-0.1,0c-7.2,0.3-14.3,0.9-21.5,1.8c-3.5,0.4-7.1,1.1-10.6,2c-0.1,0-0.2,0.1-0.3,0.1
		c-0.6,0.1-1.2,0.4-1.7,0.8c-0.1,0.1-0.2,0.2-0.2,0.3c0,0.1,0,0.2,0.2,0.3c0.3,0.1,0.6,0.2,0.9,0.3c1.2,0.2,2.3,0.3,3.5,0.3
		c1,0,2,0,3-0.1C232.2,220.8,240.9,219.1,249.5,216.5z M251.7,183.4c0.1,0,0.1-0.1,0.2-0.2c0.1-0.1,0.1-0.2,0.1-0.2
		c0-0.1,0-0.1,0-0.1c0,0-0.1-0.1-0.1-0.1l0,0c-0.3,0.1-0.6,0.2-0.9,0.5c-0.1,0.1-0.1,0.1-0.1,0.2c0,0.1,0.1,0.1,0.2,0.1
		C251.3,183.5,251.5,183.5,251.7,183.4z"/>
	<path class="st3" d="M306.5,197.7c-0.8,0.8-1.7,1.4-2.7,2c-1,0.5-1.9,0.9-2.6,1.1c-0.7,0.2-1.4,0.3-2.2,0.3
		c-1.2,0.1-2.3-0.1-3.3-0.5c-1.6-0.7-2.2-1.9-1.7-3.8c0.5-1.6,1.4-2.8,2.9-3.7c1.4-0.9,2.9-1.3,4.5-1.3h0c0.4,0,0.8,0,1.1,0.1
		c0.6,0.2,1,0.6,1.1,1c0.2,0.5,0.1,1-0.3,1.6c-0.9,1.3-2,2-3.5,2.2c-1,0.1-1.9,0-2.8-0.1c-0.2,0-0.3,0-0.5,0.1
		c-0.1,0.1-0.2,0.3-0.2,0.4c-0.3,1.2,0.1,1.9,1.1,2.2c1.2,0.4,2.5,0.4,3.8,0c1.5-0.5,2.9-1.4,4.3-2.7c1.4-1.3,2.1-1.9,2.4-1.8
		c0.2,0.1,0.3,0.3,0.2,0.8C307.7,196.2,307.3,196.9,306.5,197.7z M297.9,194.5c-0.1,0.1-0.1,0.2-0.2,0.3c0,0.1,0,0.2,0.1,0.3
		c0.5,0.3,1,0.4,1.5,0.3c0.5-0.1,1-0.3,1.4-0.6c0.4-0.3,0.5-0.8,0.5-1.3c0-0.2-0.1-0.3-0.3-0.3c-0.1,0-0.3-0.1-0.4,0
		C299.6,193.3,298.7,193.8,297.9,194.5z"/>
	<path class="st3" d="M324.2,195.2c0.3,0.2,0.3,0.6,0.1,1.3c-0.4,0.5-0.8,1-1.2,1.4c-0.4,0.4-0.9,0.8-1.5,1.2c0,0,0,0,0,0
		c-0.4,0.2-0.7,0.4-1.1,0.6c-3.2,1.2-4.9,0.5-4.9-2c-1.3,1.1-2.2,1.8-2.6,2.1c-1.1,0.6-2.2,0.9-3.5,0.8c-0.9-0.1-1.5-0.3-1.9-0.8
		c-0.3-0.5-0.3-1.2,0.1-2c0.6-1.4,1.4-2.6,2.5-3.6c1.3-1.2,2.7-2.1,4.3-2.8c0.8-0.4,1.7-0.6,2.6-0.5c0.9,0.1,1.5,0.6,1.6,1.6
		c0.1,0.3,0,0.6-0.2,0.8c-0.3,0.3-0.6,0.3-1,0.2c0,0-0.1,0-0.1,0c0,0-0.1,0-0.1-0.1c-0.4-0.5-0.8-0.8-1.2-0.7
		c-0.4,0.1-0.8,0.3-1.3,0.5c-2.1,1.2-3.6,2.9-4.6,5.1c-0.1,0.1-0.1,0.2-0.1,0.3c0,0.1,0,0.2,0.1,0.3c0.2,0.1,0.5,0.1,0.8,0
		c0.3-0.1,0.6-0.3,0.9-0.5c0.3-0.2,0.5-0.4,0.8-0.6l0,0c1-0.8,1.9-1.7,2.9-2.5c0.4-0.4,0.9-0.7,1.6-0.8c0.9,0,1.3,0.4,1.1,1.2
		c-0.1,0.3-0.2,0.6-0.3,0.9c-0.4,1.3-0.4,2,0,2.2c0.3,0.2,0.8,0.2,1.5,0c0.7-0.2,1.3-0.6,2-1.3c0.7-0.6,1.2-1.2,1.7-1.7
		C323.5,195.2,323.8,195,324.2,195.2z"/>
	<path class="st3" d="M340.3,195c0.1,0,0.1,0,0.2,0c0.1,0,0.2,0.1,0.2,0.1c0.2,0.2,0.2,0.4,0,0.6c-0.2,0.2-0.4,0.4-0.5,0.5
		c-1,0.9-2.2,1.7-3.5,2.4c-2,1-4.2,1.5-6.6,1.6c-0.9,0-1.8-0.1-2.8-0.4c-1.7-0.7-2.4-1.9-2.1-3.7c0.4-1.7,1.3-3.1,2.8-4.2
		c1.5-1.1,3.1-1.6,4.8-1.4c0.3,0.1,0.7,0.1,1,0.2c0.3,0.1,0.5,0.3,0.7,0.5c0.1,0.2,0.2,0.4,0,0.6c-0.3,0.4-0.7,0.4-1.1,0.3
		c-0.6-0.3-1.2-0.3-1.7-0.2c-0.5,0.1-1,0.4-1.6,0.8c-0.5,0.4-1,0.9-1.6,1.7c-0.6,0.7-1,1.5-1.1,2.2c-0.2,0.8,0.2,1.4,1,1.8
		c0.9,0.4,1.9,0.5,2.9,0.3c2.5-0.5,4.7-1.4,6.8-2.8c0.2-0.1,0.3-0.2,0.5-0.3c0.2-0.2,0.5-0.3,0.7-0.4C339.7,195.1,340,195,340.3,195
		z"/>
	<path class="st3" d="M358.3,196.1c-0.2,0.2-0.5,0.4-0.8,0.6c-0.9,0.5-1.6,1-2.3,1.3c-0.7,0.3-1.5,0.6-2.5,1
		c-1.4,0.4-2.3,0.3-2.7-0.3s-0.5-1.4-0.2-2.5c0.4-1.5,0.6-2.7,0.7-3.4c0.1-0.7-0.2-1-0.7-0.7s-1.5,1-2.9,2.2c-2,1.7-3.6,3.6-5,5.8
		c-0.2,0.3-0.4,0.5-0.6,0.7c-0.3,0.2-0.6,0.3-1,0.3c-0.4,0-0.6-0.1-0.8-0.3c-0.2-0.2-0.2-0.5,0-0.8c0.8-1.7,1.6-3.5,2.4-5.2
		c1.4-3,2.8-6,4.2-8.9c1-2.2,2.1-4.4,3.1-6.7c0.6-1.3,1.2-2.6,1.8-3.9c0.1-0.1,0.1-0.2,0.2-0.4c0.1-0.1,0.1-0.3,0.2-0.4
		c0.1-0.1,0.2-0.3,0.2-0.5c0.1-0.1,0.2-0.3,0.5-0.4c0.2-0.1,0.4-0.1,0.7-0.2c0.2,0,0.4,0,0.5,0c0.2,0.1,0.3,0.2,0.3,0.4
		c0,0.1,0,0.3-0.1,0.4c0,0,0,0.1,0,0.1c-0.3,0.8-0.5,1.6-0.8,2.3c-1.7,4.1-3.6,8.2-5.6,12.2c-0.1,0.3-0.3,0.6-0.5,1
		c-0.3,0.5-0.6,1.1-0.8,1.6c-0.3,0.5-0.3,0.9-0.2,1c0.1,0.2,0.5,0,1.2-0.4c0.2-0.1,0.4-0.3,0.6-0.4c0.6-0.4,1.1-0.7,1.7-1.1
		c0.5-0.3,1-0.5,1.6-0.5c1.4-0.1,2.2,0.5,2.4,1.9c0.1,0.6,0,1.1-0.1,1.6s-0.2,1.1-0.4,1.6c0,0.1-0.1,0.3-0.1,0.4
		c-0.2,0.9-0.2,1.4,0.2,1.6c0.4,0.1,0.9,0.1,1.6-0.2c0.7-0.3,1.3-0.6,2-1c0.5-0.2,0.9-0.4,1.2-0.6c0.4-0.2,0.6-0.3,0.8-0.2
		c0.3,0.1,0.5,0.2,0.4,0.4C358.7,195.7,358.5,195.9,358.3,196.1z"/>
</g>
</svg>
