<svg xmlns="http://www.w3.org/2000/svg" viewBox="0 0 32 32"><path d="M23,7H15.3527l-.36-3.1147a1,1,0,0,0-.6768-.834l-3-1a1,1,0,0,0-.6328,1.8975l2.3959.7983L13.34,7H9A1,1,0,0,0,8,8v8a8.0069,8.0069,0,0,0,7,7.93v3.2885l-3.2426.8107A1,1,0,0,0,12,30h8a1,1,0,0,0,.2427-1.97L17,27.2189V23.93A8.0069,8.0069,0,0,0,24,16V8A1,1,0,0,0,23,7ZM22,9v2.3378a5.6977,5.6977,0,0,1-.9932-.2787,6.8917,6.8917,0,0,0-2.6713-.479,6.7885,6.7885,0,0,0-2.52.4247L15.5836,9ZM13.5707,9l.2785,2.4119c-.0638.0015-.1125.008-.1812.008a4.9836,4.9836,0,0,1-1.9956-.3608A6.9437,6.9437,0,0,0,10,10.6371V9ZM16,22a6.0065,6.0065,0,0,1-6-6V12.6621a5.6873,5.6873,0,0,1,.9956.2789,6.8956,6.8956,0,0,0,2.6723.479,6.8926,6.8926,0,0,0,2.6718-.479,4.99,4.99,0,0,1,1.9956-.3609,4.972,4.972,0,0,1,1.9936.3609A6.9455,6.9455,0,0,0,22,13.363V16A6.0065,6.0065,0,0,1,16,22Z"/><path d="M16,19a3.0031,3.0031,0,0,1-3-3,1,1,0,0,0-2,0,5.0058,5.0058,0,0,0,5,5,1,1,0,0,0,0-2Z"/></svg>