<svg xmlns="http://www.w3.org/2000/svg" data-name="Layer 1" viewBox="0 0 64 64"><path fill="none" stroke="#222" stroke-linecap="round" stroke-linejoin="round" stroke-width="3" d="M42,30.33H22a3,3,0,0,0-3,3.46h0a74.18,74.18,0,0,1,0,22.46h0a3,3,0,0,0,3,3.45H42a3,3,0,0,0,3-3.45h0a74.18,74.18,0,0,1,0-22.46h0A3,3,0,0,0,42,30.33Z"/><rect width="21" height="6" x="21.5" y="24.33" fill="none" stroke="#222" stroke-linecap="round" stroke-linejoin="round" stroke-width="3"/><path fill="none" stroke="#222" stroke-linecap="round" stroke-linejoin="round" stroke-width="3" d="M28.29,9.61V8A3.71,3.71,0,0,1,32,4.3h0A3.71,3.71,0,0,1,35.71,8v1.6a4,4,0,0,0,1.49,3.11l4.94,4A5,5,0,0,1,44,20.61v2.72a1,1,0,0,1-1,1H21a1,1,0,0,1-1-1V20.61a5,5,0,0,1,1.86-3.89l4.94-4A4,4,0,0,0,28.29,9.61Z"/><line x1="19.59" x2="28.5" y1="38.49" y2="38.49" fill="none" stroke="#222" stroke-linecap="round" stroke-linejoin="round" stroke-width="3"/><line x1="19.89" x2="25.13" y1="45.02" y2="45.02" fill="none" stroke="#222" stroke-linecap="round" stroke-linejoin="round" stroke-width="3"/><line x1="19.59" x2="28.5" y1="51.55" y2="51.55" fill="none" stroke="#222" stroke-linecap="round" stroke-linejoin="round" stroke-width="3"/></svg>