<svg xmlns="http://www.w3.org/2000/svg" viewBox="0 0 32 32"><path d="M28.9187,21.388a.9538.9538,0,0,0,.0548-.15A13.9036,13.9036,0,0,0,26.45,6.7161a.9874.9874,0,0,0-.2169-.2385A13.98,13.98,0,1,0,6.472,26.2285a.98.98,0,0,0,.2287.2078,13.9037,13.9037,0,0,0,14.5406,2.5362.9565.9565,0,0,0,.1451-.0532A14.0771,14.0771,0,0,0,28.9187,21.388Zm-7.7582,5.4292-1.4339-1.4339a23.4405,23.4405,0,0,1-6.204-11.0374,3.5183,3.5183,0,0,0,.8233-.8233,23.4453,23.4453,0,0,1,11.0379,6.204L26.8174,21.16A12.0569,12.0569,0,0,1,21.1605,26.8172ZM10,11.5A1.5,1.5,0,1,1,11.5,13,1.5017,1.5017,0,0,1,10,11.5Zm17.5806,7.5952-.7827-.7827a25.4448,25.4448,0,0,0-11.81-6.69c.0015-.0416.0124-.0806.0124-.1225a3.4516,3.4516,0,0,0-.1366-.9144,13.49,13.49,0,0,1,10.2087-2.417,11.856,11.856,0,0,1,2.5085,10.9266ZM22.5931,5.9843a15.5074,15.5074,0,0,0-8.7867,2.904,3.499,3.499,0,0,0-.7427-.5026A.9542.9542,0,0,0,13.11,8.189a13.1705,13.1705,0,0,1,.7928-3.9935,11.8028,11.8028,0,0,1,8.69,1.7888ZM11.6108,4.8428a15.1431,15.1431,0,0,0-.4934,3.1959,3.4823,3.4823,0,0,0-3.0787,3.0787,15.1431,15.1431,0,0,0-3.1959.4934A12.0506,12.0506,0,0,1,11.6108,4.8428Zm-7.4153,9.06A13.1705,13.1705,0,0,1,8.189,13.11a.9534.9534,0,0,0,.1963-.0475,3.4972,3.4972,0,0,0,.503.7435,15.5122,15.5122,0,0,0-2.9047,8.7854,11.8022,11.8022,0,0,1-1.7881-8.6886ZM8.1678,25.0714a13.4956,13.4956,0,0,1,2.4178-10.2079A3.4556,3.4556,0,0,0,11.5,15c.0419,0,.0809-.0109.1224-.0124a25.4388,25.4388,0,0,0,6.69,11.81l.7831.783a11.8553,11.8553,0,0,1-10.9278-2.509Z"/></svg>