<svg xmlns="http://www.w3.org/2000/svg" enable-background="new 0 0 64 64" viewBox="0 0 64 64"><path d="M63.95,44.76c-0.91-5.67-3.27-11.41-6.77-16.34c-0.04-0.07-0.08-0.13-0.14-0.19c-5.68-7.92-14.29-13.73-24.51-13.73
	c-3.46,0-6.88,0.72-10.14,2.02c-0.04,0.01-0.07,0-0.11,0.01c-0.14,0.04-0.26,0.1-0.37,0.19C11.1,21.24,2.17,32.19,0.05,44.95
	c-0.23,1.41,0.29,2.78,1.41,3.67c0.72,0.58,1.58,0.87,2.46,0.87c0.51,0,1.02-0.1,1.52-0.3c18.58-7.59,36.42-7.68,53.04-0.26
	c1.32,0.59,2.84,0.4,3.99-0.48C63.63,47.57,64.18,46.19,63.95,44.76z M55.15,28.92l-8.83,13.96c-3.29-0.71-6.62-1.15-9.99-1.32
	l5.96-23.1C47.41,20.62,51.79,24.38,55.15,28.92z M21.86,18.8l5.92,22.9c-3.12,0.25-6.26,0.71-9.42,1.4l-9-14.22
	C12.69,24.6,16.95,21,21.86,18.8z M4.7,47.38c-0.69,0.28-1.44,0.17-2.02-0.29c-0.56-0.45-0.82-1.11-0.7-1.82
	c0.83-5.01,2.98-10.16,6.13-14.69l8.23,13C12.49,44.52,8.61,45.78,4.7,47.38z M29.76,41.56l-6.08-23.5
	c2.78-1.02,5.75-1.59,8.85-1.59c2.77,0,5.42,0.47,7.91,1.3L34.32,41.5C32.81,41.47,31.29,41.48,29.76,41.56z M61.28,46.9
	c-0.58,0.45-1.33,0.54-2,0.24c-3.6-1.61-7.25-2.85-10.96-3.77l8.03-12.7c2.89,4.42,4.86,9.44,5.65,14.4
	C62.13,45.78,61.85,46.46,61.28,46.9z"/></svg>