<svg xmlns="http://www.w3.org/2000/svg" viewBox="0 0 32 32"><path d="M23.17,11H24a1,1,0,0,0,1-1V3a1,1,0,0,0-2,0V4H21V3a1,1,0,0,0-2,0V4H17V3a1,1,0,0,0-2,0V4H13V3a1,1,0,0,0-2,0V4H9V3A1,1,0,0,0,7,3v7a1,1,0,0,0,1,1h.83L6.0127,28.8438A1,1,0,0,0,7,30H25a1,1,0,0,0,.9873-1.1562ZM23,9H9V6H23ZM14,28V24a2,2,0,0,1,4,0v4Zm6,0V24a4,4,0,0,0-8,0v4H8.17l2.6846-17h10.291L23.83,28Z"/><path d="M18 14a1 1 0 0 0-1-1H15a1 1 0 0 0 0 2h2A1 1 0 0 0 18 14zM14 16H12a1 1 0 0 0 0 2h2a1 1 0 0 0 0-2zM20 16H18a1 1 0 0 0 0 2h2a1 1 0 0 0 0-2z"/></svg>