<svg xmlns="http://www.w3.org/2000/svg" viewBox="0 0 32 32"><path d="M29.8384,13.8477A13.9235,13.9235,0,0,0,18.1523,2.1616a14.4579,14.4579,0,0,0-4.3046,0A13.9235,13.9235,0,0,0,2.1616,13.8477,13.982,13.982,0,0,0,13.84,29.8177.9447.9447,0,0,0,14,29.85c.0105,0,.0192-.0057.03-.006A13.7185,13.7185,0,0,0,16,30a13.7185,13.7185,0,0,0,1.97-.1559c.01,0,.0191.006.03.006a.9447.9447,0,0,0,.16-.0324,14.0177,14.0177,0,0,0,11.6781-15.97ZM23.9283,17a7.019,7.019,0,0,0,0-2h4.03c.0264.3294.0419.663.0419,1s-.0155.6706-.0419,1ZM16,22a5.9931,5.9931,0,1,1,5.7515-4.2852A5.96,5.96,0,0,1,16,22ZM4.0419,17C4.0155,16.6706,4,16.337,4,16s.0155-.6706.0419-1h4.03a7.0142,7.0142,0,0,0,0,2Zm23.5753-4h-4.21A7.928,7.928,0,0,0,19,8.5927v-4.21A12.1149,12.1149,0,0,1,27.6172,13ZM17,4.0419v4.031a8.2055,8.2055,0,0,0-2,0V4.0419C15.3294,4.0155,15.663,4,16,4S16.6706,4.0155,17,4.0419Zm-4,.3409v4.21A7.928,7.928,0,0,0,8.5927,13h-4.21A12.1149,12.1149,0,0,1,13,4.3828ZM4.3793,19h4.229A7.8921,7.8921,0,0,0,13,23.4016v4.2036A12.1083,12.1083,0,0,1,4.3793,19ZM15,27.9538V23.92A8.1138,8.1138,0,0,0,16,24a8.1138,8.1138,0,0,0,1-.08v4.0341c-.3306.0281-.6636.0462-1,.0462S15.3306,27.9819,15,27.9538Zm4-.3486V23.4017A7.89,7.89,0,0,0,23.392,19h4.2287A12.1083,12.1083,0,0,1,19,27.6052Z"/></svg>