<svg xmlns="http://www.w3.org/2000/svg" width="32" height="32" fill="none" viewBox="0 0 32 32"><path fill="#000" fill-rule="evenodd" d="M6.4 16.625V14.8747C6.4 14.1973 6.05708 13.5659 5.48884 13.1971L4.91116 12.8221C4.34292 12.4533 4 11.822 4 11.1445V6.6C4 6.26863 4.26863 6 4.6 6C4.93137 6 5.2 6.26863 5.2 6.6V9.99231C5.2 10.5515 5.58243 11.0213 6.1 11.1545V6.5C6.1 6.27909 6.27909 6.1 6.5 6.1C6.72091 6.1 6.9 6.27909 6.9 6.5V11.1923H7.1V6.5C7.1 6.27909 7.27909 6.1 7.5 6.1C7.72091 6.1 7.9 6.27909 7.9 6.5V11.1545C8.41757 11.0213 8.8 10.5515 8.8 9.99231V6.6C8.8 6.26863 9.06863 6 9.4 6C9.73137 6 10 6.26863 10 6.6V11.1445C10 11.822 9.65708 12.4533 9.08884 12.8221L8.51116 13.1971C7.94292 13.5659 7.6 14.1973 7.6 14.8747V16.625L8.14068 25.0731C8.17281 25.5752 7.77429 26 7.27123 26C6.79006 26 6.4 25.6099 6.4 25.1288V16.625ZM15.1087 25.0375L15.6102 13.6213C14.3499 13.2194 13.2567 11.6071 13.2683 9.80488C13.2818 7.7035 14.5703 6.0082 16.1463 6.0183C17.7224 6.02841 18.9891 7.74011 18.9756 9.84148C18.965 11.4924 17.6937 13.1046 16.5848 13.6257L16.9398 25.0492C16.956 25.5685 16.5376 25.9972 16.0182 25.9939C15.4987 25.9906 15.0859 25.5565 15.1087 25.0375ZM25.3823 16.4636L25.2098 6.19212C24.615 6.34082 22.6224 7.5304 22.9793 11.0992C23.2704 14.0104 24.008 15.3623 24.2699 15.8423C24.329 15.9508 24.3639 16.0147 24.3639 16.0421V25.5566C24.3639 26.0025 24.7254 26.3639 25.1713 26.3639C25.638 26.3639 26.0075 25.9693 25.9769 25.5036L25.3823 16.4636Z" clip-rule="evenodd"/></svg>