<svg xmlns="http://www.w3.org/2000/svg" viewBox="0 0 80 80"><path d="M41.203 5.411a1.984 1.984 0 0 0-.514-.282c-.034-.012-.068-.02-.102-.031A1.978 1.978 0 0 0 40.004 5h-.008c-.204 0-.397.04-.583.098-.034.01-.068.019-.102.031a1.983 1.983 0 0 0-.514.282c-.013.01-.028.013-.041.023C38.03 6.01 21 19.877 21 49.08c0 8.79 1.066 17.247 3.084 24.459A1.999 1.999 0 0 0 26.01 75H53.99c.898 0 1.685-.597 1.926-1.461C57.934 66.327 59 57.869 59 49.08 59 19.877 41.969 6.01 41.244 5.434c-.013-.01-.028-.013-.041-.023zM25 49.081c0-19.485 8.26-31.78 13-37.232V55h-2a2 2 0 0 0-2 2v14h-6.455C25.878 64.46 25 56.92 25 49.08zM38 71V59h4v12h-4zm8.893-52.47C50.59 24.627 55 34.877 55 49.08c0 7.84-.878 15.38-2.545 21.92H46V57a2 2 0 0 0-2-2h-2V11.824a47.724 47.724 0 0 1 4.893 6.706z"/></svg>