<svg xmlns="http://www.w3.org/2000/svg" viewBox="0 0 32 32"><path d="M29,25H21V14.931a3.2026,3.2026,0,0,1,1.2927.7758.9929.9929,0,0,0,.6922.29L23,16h0a.9934.9934,0,0,0,.3454-.07.9344.9344,0,0,0,.1007-.0474.9493.9493,0,0,0,.1086-.0512l.3681-.2456a5.4385,5.4385,0,0,1,4.7608-.6372,1,1,0,0,0,1.292-1.1655l-.4815-2.1665A9.657,9.657,0,0,0,21,4.0552V3a1,1,0,0,0-2,0V4.0552a9.657,9.657,0,0,0-8.4946,7.5615l-.4815,2.1665a1,1,0,0,0,1.292,1.1655,5.431,5.431,0,0,1,4.76.6367l.3686.2461a.94.94,0,0,0,.0944.0416.9581.9581,0,0,0,.1416.0624.97.97,0,0,0,.2291.0463c.0312.0029.0581.0182.09.0182.0154,0,.0283-.0081.0436-.0088a.9861.9861,0,0,0,.2607-.0527,1.0028,1.0028,0,0,0,.1-.0276.9925.9925,0,0,0,.2985-.2012l.0041-.0029A3.2026,3.2026,0,0,1,19,14.931V25H16.2749l-2.0581-1.5679A7.0383,7.0383,0,0,0,9.9746,22h-4.56L3.707,20.293a1,1,0,0,0-1.414,1.414l2,2,.0006.0006,2.42,2.42L5.168,28.4453a1,1,0,1,0,1.664,1.1094L8.5352,27h14.93l1.7032,2.5547a1,1,0,0,0,1.664-1.1094L25.8685,27H29a1,1,0,0,0,0-2ZM20,7.0017a17.0488,17.0488,0,0,1,1.8875,6.1237,5.0551,5.0551,0,0,0-3.775,0A17.0494,17.0494,0,0,1,20,7.0017ZM27.5425,12.05l.1445.6509a7.3746,7.3746,0,0,0-3.7694.63A19.0546,19.0546,0,0,0,21.855,6.2253,7.67,7.67,0,0,1,27.5425,12.05Zm-15.2295.6509.1445-.6509a7.67,7.67,0,0,1,5.6875-5.825,19.0541,19.0541,0,0,0-2.0626,7.1055A7.3727,7.3727,0,0,0,12.313,12.7012ZM9.9746,24a5.0267,5.0267,0,0,1,2.9944,1H8.4141l-1-1Z"/></svg>